<svg xmlns="http://www.w3.org/2000/svg" width="66" height="66" viewBox="0 0 66 66">
  <g id="Raggruppa_723" data-name="Raggruppa 723" transform="translate(3263 -3033)">
    <path id="Tracciato_483" data-name="Tracciato 483" d="M25.437,0H4.812A4.818,4.818,0,0,0,0,4.812V17.187A4.818,4.818,0,0,0,4.812,22H25.437a4.818,4.818,0,0,0,4.813-4.813V4.812A4.818,4.818,0,0,0,25.437,0Zm0,0" transform="translate(-3263 3033)" fill="#5c55be"/>
    <path id="Tracciato_484" data-name="Tracciato 484" d="M25.437,213.332H4.812A4.818,4.818,0,0,0,0,218.145V247.02a4.818,4.818,0,0,0,4.812,4.812H25.437a4.818,4.818,0,0,0,4.813-4.812V218.145A4.818,4.818,0,0,0,25.437,213.332Zm0,0" transform="translate(-3263 2847.168)" fill="#372dbd"/>
    <path id="Tracciato_485" data-name="Tracciato 485" d="M302.77,341.332H282.145a4.818,4.818,0,0,0-4.813,4.813V358.52a4.818,4.818,0,0,0,4.813,4.812H302.77a4.818,4.818,0,0,0,4.812-4.812V346.145A4.818,4.818,0,0,0,302.77,341.332Zm0,0" transform="translate(-3504.582 2735.668)" fill="#5c55be"/>
    <path id="Tracciato_486" data-name="Tracciato 486" d="M302.77,0H282.145a4.818,4.818,0,0,0-4.813,4.812V33.687a4.818,4.818,0,0,0,4.813,4.813H302.77a4.818,4.818,0,0,0,4.812-4.813V4.812A4.818,4.818,0,0,0,302.77,0Zm0,0" transform="translate(-3504.582 3033)" fill="#372dbd"/>
  </g>
</svg>
